<?xml version="1.0" standalone="no"?>
<!DOCTYPE svg PUBLIC "-//W3C//DTD SVG 20010904//EN"
 "http://www.w3.org/TR/2001/REC-SVG-20010904/DTD/svg10.dtd">
<svg version="1.0" xmlns="http://www.w3.org/2000/svg"
 width="96.000000pt" height="96.000000pt" viewBox="0 0 96.000000 96.000000"
 preserveAspectRatio="xMidYMid meet">

<g transform="translate(0.000000,96.000000) scale(0.100000,-0.100000)"
fill="#000000" stroke="none">
<path d="M371 894 c-212 -57 -350 -268 -314 -480 41 -235 261 -396 489 -357
234 40 396 261 357 487 -44 255 -288 416 -532 350z m217 -62 c154 -48 262
-194 262 -352 0 -56 -32 -165 -58 -198 l-18 -23 -52 34 c-77 52 -143 72 -242
72 -99 0 -165 -20 -242 -72 l-52 -34 -18 23 c-26 33 -58 142 -58 198 0 66 34
166 75 222 90 122 255 175 403 130z"/>
<path d="M415 736 c-115 -52 -139 -193 -49 -278 56 -52 120 -61 188 -28 60 29
91 80 91 150 0 44 -6 65 -25 93 -45 66 -136 94 -205 63z"/>
</g>
</svg>
